<svg height="512" viewBox="0 0 32 32" width="512" xmlns="http://www.w3.org/2000/svg"><g id="Layer_35" data-name="Layer 35"><path d="m6 2h-2a2 2 0 0 0 -2 2v24a2 2 0 0 0 2 2h2a2 2 0 0 0 2-2v-24a2 2 0 0 0 -2-2zm-2 26v-24h2v24zm10-26h-2a2 2 0 0 0 -2 2v24a2 2 0 0 0 2 2h2a2 2 0 0 0 2-2v-24a2 2 0 0 0 -2-2zm-2 26v-24h2v24zm18-1.19-6.21-23.18a2 2 0 0 0 -2.45-1.41l-1.93.52a2 2 0 0 0 -1.41 2.45l6.21 23.18a2 2 0 0 0 1.93 1.48 1.91 1.91 0 0 0 .52-.07l1.93-.52a2 2 0 0 0 1.41-2.45zm-3.86 1-6.21-23.14 1.93-.52 6.21 23.18z"/></g></svg>