<svg width="37" height="37" viewBox="0 0 37 37" fill="none" xmlns="http://www.w3.org/2000/svg">
<path d="M36.3217 33.0614L29.1604 25.8971C34.5188 18.7364 33.0578 8.5876 25.8971 3.2292C18.7364 -2.1292 8.58761 -0.66814 3.2292 6.49255C-2.1292 13.6532 -0.66814 23.802 6.49255 29.1604C12.2446 33.4648 20.145 33.4648 25.8971 29.1604L33.0614 36.3247C33.9617 37.225 35.4214 37.225 36.3216 36.3247C37.222 35.4244 37.222 33.9647 36.3216 33.0645L36.3217 33.0614ZM16.2545 27.7777C9.89044 27.7777 4.73139 22.6186 4.73139 16.2545C4.73139 9.89044 9.89044 4.73139 16.2545 4.73139C22.6186 4.73139 27.7777 9.89044 27.7777 16.2545C27.7709 22.6157 22.6158 27.7709 16.2545 27.7777Z" fill="white" fill-opacity="0.14"/>
</svg>
